<?xml version="1.0" standalone="no"?>
<!DOCTYPE svg PUBLIC "-//W3C//DTD SVG 20010904//EN"
 "http://www.w3.org/TR/2001/REC-SVG-20010904/DTD/svg10.dtd">
<svg version="1.0" xmlns="http://www.w3.org/2000/svg"
 width="100" height="50" viewBox="0 0 300.000000 129.000000"
 preserveAspectRatio="xMidYMid meet">

<g transform="translate(0.000000,129.000000) scale(0.100000,-0.100000)"
fill="#000000" stroke="none">
<path d="M599 1280 c-82 -8 -201 -40 -260 -70 -52 -27 -120 -98 -149 -155 -22
-43 -25 -63 -25 -150 0 -91 2 -104 27 -147 41 -69 84 -99 279 -198 186 -94
223 -123 235 -185 23 -124 -125 -216 -251 -155 -51 25 -85 81 -85 139 l0 41
-186 0 -187 0 6 -79 c11 -166 91 -253 274 -298 96 -23 353 -23 447 0 180 45
294 139 337 279 48 152 2 291 -119 366 -26 15 -105 55 -176 87 -155 71 -196
99 -220 153 -25 55 -16 101 29 141 60 52 150 54 206 3 23 -20 32 -39 37 -77
l7 -50 176 -3 176 -2 6 34 c15 91 -34 198 -115 252 -90 60 -291 92 -469 74z"/>
<path d="M1385 1284 c-105 -10 -238 -40 -264 -60 -2 -2 13 -22 33 -46 47 -55
68 -125 64 -220 l-3 -73 -152 -3 c-173 -3 -167 2 -136 -88 28 -82 88 -130 292
-233 115 -58 188 -101 204 -121 91 -107 -9 -254 -160 -237 -73 8 -142 76 -144
141 -1 26 -3 24 -10 -14 -16 -80 -65 -165 -130 -223 l-59 -54 61 -17 c138 -39
354 -44 498 -10 206 47 335 180 348 360 7 94 -9 152 -59 216 -35 44 -57 58
-216 135 -212 103 -229 114 -254 170 -37 84 10 164 106 178 90 14 158 -34 170
-119 l7 -46 174 0 173 0 7 29 c9 44 -12 140 -40 182 -44 68 -128 116 -236 138
-62 12 -215 20 -274 15z"/>
<path d="M2588 1280 c-118 -19 -225 -76 -330 -179 -32 -30 -58 -52 -58 -48 0
5 11 48 25 97 14 49 25 94 25 99 0 7 -66 11 -200 11 -110 0 -200 -4 -200 -8 0
-5 14 -21 31 -38 70 -67 107 -177 94 -281 l-6 -52 -107 -3 -107 -3 -24 -84
c-23 -81 -23 -84 -5 -94 35 -19 97 -91 117 -136 12 -28 22 -76 25 -123 8 -135
-47 -266 -144 -343 -27 -22 -53 -43 -58 -47 -6 -4 54 -8 132 -8 l141 0 11 38
c5 20 50 183 99 362 113 410 125 442 200 523 51 55 105 80 173 81 67 1 103
-20 132 -78 16 -33 17 -46 7 -109 -5 -40 -53 -227 -105 -417 -52 -190 -97
-357 -101 -372 l-7 -28 205 0 206 0 20 68 c11 37 63 227 117 422 89 325 98
363 98 445 0 73 -4 100 -23 143 -56 126 -206 190 -383 162z"/>
</g>
</svg>
