<svg width="64" height="50" viewBox="0 0 64 50" fill="none" xmlns="http://www.w3.org/2000/svg">
<g id="SVG" clip-path="url(#clip0_14_6)">
<path id="Vector" d="M14.9525 46.875C7.18883 46.875 0.889999 40.5762 0.889999 32.8125C0.889999 26.6797 4.81578 21.4648 10.2845 19.541C10.2748 19.2773 10.265 19.0137 10.265 18.75C10.265 10.1172 17.2572 3.125 25.89 3.125C31.681 3.125 36.7298 6.26953 39.4349 10.957C40.9742 9.92417 42.7863 9.3734 44.64 9.375C49.8158 9.375 54.015 13.5742 54.015 18.75C54.015 19.9414 53.7904 21.0742 53.39 22.1289C59.0931 23.2812 63.39 28.3301 63.39 34.375C63.39 41.2793 57.7943 46.875 50.89 46.875H14.9525M22.6673 25.6836C21.7494 26.6016 21.7494 28.0859 22.6673 28.9941C23.5853 29.9023 25.0697 29.9121 25.9779 28.9941L29.7865 25.1855V38.2812C29.7865 39.5801 30.8314 40.625 32.1302 40.625C33.4291 40.625 34.474 39.5801 34.474 38.2812V25.1855L38.2826 28.9941C39.2005 29.9121 40.6849 29.9121 41.5931 28.9941C42.5013 28.0762 42.5111 26.5918 41.5931 25.6836L33.7806 17.8711C32.8627 16.9531 31.3783 16.9531 30.4701 17.8711L22.6576 25.6836" fill="#525252"/>
</g>
<defs>
<clipPath id="clip0_14_6">
<rect width="62.5" height="50" fill="white" transform="translate(0.889999)"/>
</clipPath>
</defs>
</svg>
